<mxfile host="app.diagrams.net" agent="Mozilla/5.0 (Windows NT 10.0; Win64; x64) AppleWebKit/537.36 (KHTML, like Gecko) Chrome/130.0.0.0 Safari/537.36" version="24.7.16">
  <diagram name="Page-1" id="j-lT6MA5hu-zF4EUhWYv">
    <mxGraphModel dx="1024" dy="531" grid="1" gridSize="10" guides="1" tooltips="1" connect="1" arrows="1" fold="1" page="1" pageScale="1" pageWidth="700" pageHeight="1000" math="0" shadow="0">
      <root>
        <mxCell id="0" />
        <mxCell id="1" parent="0" />
        <mxCell id="tLhd8bqxnXsY4mrxMTSh-1" value="&lt;b&gt;&lt;font style=&quot;font-size: 21px;&quot;&gt;User&lt;/font&gt;&lt;/b&gt;" style="rounded=0;whiteSpace=wrap;html=1;" vertex="1" parent="1">
          <mxGeometry x="10" y="200" width="120" height="40" as="geometry" />
        </mxCell>
        <mxCell id="tLhd8bqxnXsY4mrxMTSh-4" value="" style="rounded=0;whiteSpace=wrap;html=1;" vertex="1" parent="1">
          <mxGeometry x="190" y="130" width="40" height="300" as="geometry" />
        </mxCell>
        <mxCell id="tLhd8bqxnXsY4mrxMTSh-5" value="" style="endArrow=classic;html=1;rounded=0;" edge="1" parent="1">
          <mxGeometry width="50" height="50" relative="1" as="geometry">
            <mxPoint x="140" y="210" as="sourcePoint" />
            <mxPoint x="180" y="210" as="targetPoint" />
          </mxGeometry>
        </mxCell>
        <mxCell id="tLhd8bqxnXsY4mrxMTSh-6" value="" style="endArrow=classic;html=1;rounded=0;" edge="1" parent="1">
          <mxGeometry width="50" height="50" relative="1" as="geometry">
            <mxPoint x="180" y="230" as="sourcePoint" />
            <mxPoint x="140" y="230" as="targetPoint" />
          </mxGeometry>
        </mxCell>
        <mxCell id="tLhd8bqxnXsY4mrxMTSh-9" value="Django" style="rounded=1;whiteSpace=wrap;html=1;" vertex="1" parent="1">
          <mxGeometry x="250" y="200" width="60" height="40" as="geometry" />
        </mxCell>
        <mxCell id="tLhd8bqxnXsY4mrxMTSh-10" value="" style="curved=1;endArrow=classic;html=1;rounded=0;exitX=0.729;exitY=-0.082;exitDx=0;exitDy=0;exitPerimeter=0;entryX=0.5;entryY=0;entryDx=0;entryDy=0;" edge="1" parent="1" source="tLhd8bqxnXsY4mrxMTSh-9" target="tLhd8bqxnXsY4mrxMTSh-11">
          <mxGeometry width="50" height="50" relative="1" as="geometry">
            <mxPoint x="380" y="200" as="sourcePoint" />
            <mxPoint x="430" y="197" as="targetPoint" />
            <Array as="points">
              <mxPoint x="310" y="150" />
              <mxPoint x="370" y="160" />
            </Array>
          </mxGeometry>
        </mxCell>
        <mxCell id="tLhd8bqxnXsY4mrxMTSh-11" value="Url Resolver" style="rounded=1;whiteSpace=wrap;html=1;" vertex="1" parent="1">
          <mxGeometry x="320" y="200" width="80" height="40" as="geometry" />
        </mxCell>
        <mxCell id="tLhd8bqxnXsY4mrxMTSh-12" value="" style="curved=1;endArrow=classic;html=1;rounded=0;exitX=0.103;exitY=1.089;exitDx=0;exitDy=0;exitPerimeter=0;entryX=1;entryY=0.5;entryDx=0;entryDy=0;" edge="1" parent="1" source="tLhd8bqxnXsY4mrxMTSh-9" target="tLhd8bqxnXsY4mrxMTSh-4">
          <mxGeometry width="50" height="50" relative="1" as="geometry">
            <mxPoint x="350" y="320" as="sourcePoint" />
            <mxPoint x="250" y="280" as="targetPoint" />
            <Array as="points">
              <mxPoint x="260" y="270" />
            </Array>
          </mxGeometry>
        </mxCell>
        <mxCell id="tLhd8bqxnXsY4mrxMTSh-13" value="Urls.py" style="rounded=1;whiteSpace=wrap;html=1;" vertex="1" parent="1">
          <mxGeometry x="414" y="200" width="100" height="40" as="geometry" />
        </mxCell>
        <mxCell id="tLhd8bqxnXsY4mrxMTSh-15" value="" style="curved=1;endArrow=classic;html=1;rounded=0;entryX=0.307;entryY=-0.082;entryDx=0;entryDy=0;entryPerimeter=0;" edge="1" parent="1" target="tLhd8bqxnXsY4mrxMTSh-9">
          <mxGeometry width="50" height="50" relative="1" as="geometry">
            <mxPoint x="230" y="140" as="sourcePoint" />
            <mxPoint x="310.04999999999995" y="200" as="targetPoint" />
            <Array as="points">
              <mxPoint x="250" y="110" />
            </Array>
          </mxGeometry>
        </mxCell>
        <mxCell id="tLhd8bqxnXsY4mrxMTSh-16" value="&lt;b&gt;Urls.py&lt;/b&gt;&lt;div&gt;&lt;b&gt;&lt;br&gt;&lt;/b&gt;&lt;/div&gt;&lt;div&gt;&lt;div&gt;&lt;b&gt;Urls.py&lt;/b&gt;&lt;/div&gt;&lt;div&gt;&lt;b&gt;&lt;br&gt;&lt;/b&gt;&lt;div&gt;&lt;b&gt;Urls.py&lt;/b&gt;&lt;div&gt;&lt;br&gt;&lt;/div&gt;&lt;/div&gt;&lt;/div&gt;&lt;/div&gt;" style="rounded=1;whiteSpace=wrap;html=1;" vertex="1" parent="1">
          <mxGeometry x="530" y="120" width="60" height="230" as="geometry" />
        </mxCell>
        <mxCell id="tLhd8bqxnXsY4mrxMTSh-17" value="" style="curved=1;endArrow=classic;html=1;rounded=0;entryX=0.384;entryY=1.089;entryDx=0;entryDy=0;entryPerimeter=0;" edge="1" parent="1" target="tLhd8bqxnXsY4mrxMTSh-13">
          <mxGeometry width="50" height="50" relative="1" as="geometry">
            <mxPoint x="360" y="244" as="sourcePoint" />
            <mxPoint x="450" y="250" as="targetPoint" />
            <Array as="points">
              <mxPoint x="380" y="260" />
              <mxPoint x="420" y="270" />
            </Array>
          </mxGeometry>
        </mxCell>
        <mxCell id="tLhd8bqxnXsY4mrxMTSh-18" value="" style="curved=1;endArrow=classic;html=1;rounded=0;entryX=-0.055;entryY=0.157;entryDx=0;entryDy=0;entryPerimeter=0;" edge="1" parent="1" target="tLhd8bqxnXsY4mrxMTSh-16">
          <mxGeometry width="50" height="50" relative="1" as="geometry">
            <mxPoint x="480" y="200" as="sourcePoint" />
            <mxPoint x="514" y="140" as="targetPoint" />
            <Array as="points">
              <mxPoint x="480" y="200" />
              <mxPoint x="490" y="160" />
            </Array>
          </mxGeometry>
        </mxCell>
        <mxCell id="tLhd8bqxnXsY4mrxMTSh-19" value="views.py" style="rounded=1;whiteSpace=wrap;html=1;" vertex="1" parent="1">
          <mxGeometry x="610" y="205" width="70" height="30" as="geometry" />
        </mxCell>
        <mxCell id="tLhd8bqxnXsY4mrxMTSh-20" value="" style="curved=1;endArrow=classic;html=1;rounded=0;entryX=0.606;entryY=0.01;entryDx=0;entryDy=0;entryPerimeter=0;" edge="1" parent="1" target="tLhd8bqxnXsY4mrxMTSh-19">
          <mxGeometry width="50" height="50" relative="1" as="geometry">
            <mxPoint x="590" y="160" as="sourcePoint" />
            <mxPoint x="650" y="190" as="targetPoint" />
            <Array as="points">
              <mxPoint x="620" y="160" />
            </Array>
          </mxGeometry>
        </mxCell>
        <mxCell id="tLhd8bqxnXsY4mrxMTSh-21" value="" style="endArrow=classic;html=1;rounded=0;entryX=0.5;entryY=0;entryDx=0;entryDy=0;" edge="1" parent="1" target="c7RCAVizaGSI6eoNCR5v-1">
          <mxGeometry width="50" height="50" relative="1" as="geometry">
            <mxPoint x="644.64" y="240" as="sourcePoint" />
            <mxPoint x="644.64" y="290" as="targetPoint" />
          </mxGeometry>
        </mxCell>
        <mxCell id="tLhd8bqxnXsY4mrxMTSh-22" value="Model.py" style="rounded=1;whiteSpace=wrap;html=1;" vertex="1" parent="1">
          <mxGeometry x="730" y="130" width="60" height="30" as="geometry" />
        </mxCell>
        <mxCell id="tLhd8bqxnXsY4mrxMTSh-25" value="" style="endArrow=classic;html=1;rounded=0;exitX=0;exitY=1;exitDx=0;exitDy=0;exitPerimeter=0;" edge="1" parent="1" source="tLhd8bqxnXsY4mrxMTSh-22">
          <mxGeometry width="50" height="50" relative="1" as="geometry">
            <mxPoint x="710" y="175" as="sourcePoint" />
            <mxPoint x="680" y="205" as="targetPoint" />
          </mxGeometry>
        </mxCell>
        <mxCell id="tLhd8bqxnXsY4mrxMTSh-26" value="" style="endArrow=classic;html=1;rounded=0;entryX=-0.055;entryY=0.148;entryDx=0;entryDy=0;entryPerimeter=0;" edge="1" parent="1" target="tLhd8bqxnXsY4mrxMTSh-22">
          <mxGeometry width="50" height="50" relative="1" as="geometry">
            <mxPoint x="660" y="205" as="sourcePoint" />
            <mxPoint x="710" y="155" as="targetPoint" />
          </mxGeometry>
        </mxCell>
        <mxCell id="c7RCAVizaGSI6eoNCR5v-1" value="&lt;b&gt;&lt;font style=&quot;font-size: 14px;&quot;&gt;Response&lt;/font&gt;&lt;/b&gt;" style="text;html=1;align=center;verticalAlign=middle;whiteSpace=wrap;rounded=0;" vertex="1" parent="1">
          <mxGeometry x="595" y="360" width="100" height="30" as="geometry" />
        </mxCell>
        <mxCell id="c7RCAVizaGSI6eoNCR5v-4" value="" style="endArrow=classic;html=1;rounded=0;" edge="1" parent="1">
          <mxGeometry width="50" height="50" relative="1" as="geometry">
            <mxPoint x="644.64" y="390" as="sourcePoint" />
            <mxPoint x="644.64" y="430" as="targetPoint" />
          </mxGeometry>
        </mxCell>
        <mxCell id="c7RCAVizaGSI6eoNCR5v-5" value="&lt;b style=&quot;font-size: 15px;&quot;&gt;Templates&lt;/b&gt;" style="text;html=1;align=center;verticalAlign=middle;whiteSpace=wrap;rounded=0;fontSize=15;" vertex="1" parent="1">
          <mxGeometry x="600" y="430" width="100" height="30" as="geometry" />
        </mxCell>
        <mxCell id="c7RCAVizaGSI6eoNCR5v-6" value="" style="curved=1;endArrow=classic;html=1;rounded=0;entryX=0.5;entryY=1;entryDx=0;entryDy=0;" edge="1" parent="1" source="c7RCAVizaGSI6eoNCR5v-5" target="tLhd8bqxnXsY4mrxMTSh-9">
          <mxGeometry width="50" height="50" relative="1" as="geometry">
            <mxPoint x="439" y="440" as="sourcePoint" />
            <mxPoint x="489" y="390" as="targetPoint" />
            <Array as="points">
              <mxPoint x="540" y="470" />
              <mxPoint x="400" y="410" />
            </Array>
          </mxGeometry>
        </mxCell>
        <mxCell id="c7RCAVizaGSI6eoNCR5v-7" value="" style="curved=1;endArrow=classic;html=1;rounded=0;entryX=0.85;entryY=1.082;entryDx=0;entryDy=0;entryPerimeter=0;exitX=0;exitY=1;exitDx=0;exitDy=0;" edge="1" parent="1" source="c7RCAVizaGSI6eoNCR5v-1" target="tLhd8bqxnXsY4mrxMTSh-9">
          <mxGeometry width="50" height="50" relative="1" as="geometry">
            <mxPoint x="550" y="410" as="sourcePoint" />
            <mxPoint x="450" y="270" as="targetPoint" />
            <Array as="points">
              <mxPoint x="570" y="390" />
            </Array>
          </mxGeometry>
        </mxCell>
        <mxCell id="c7RCAVizaGSI6eoNCR5v-8" value="" style="curved=1;endArrow=classic;html=1;rounded=0;exitX=0.588;exitY=-0.105;exitDx=0;exitDy=0;exitPerimeter=0;entryX=0.5;entryY=0;entryDx=0;entryDy=0;entryPerimeter=0;" edge="1" parent="1" source="tLhd8bqxnXsY4mrxMTSh-22" target="c7RCAVizaGSI6eoNCR5v-9">
          <mxGeometry width="50" height="50" relative="1" as="geometry">
            <mxPoint x="770" y="120" as="sourcePoint" />
            <mxPoint x="910" y="160" as="targetPoint" />
            <Array as="points">
              <mxPoint x="880" y="20" />
            </Array>
          </mxGeometry>
        </mxCell>
        <mxCell id="c7RCAVizaGSI6eoNCR5v-9" value="&lt;b&gt;&lt;font style=&quot;font-size: 15px;&quot;&gt;DB&lt;/font&gt;&lt;/b&gt;" style="shape=cylinder3;whiteSpace=wrap;html=1;boundedLbl=1;backgroundOutline=1;size=15;" vertex="1" parent="1">
          <mxGeometry x="880" y="160" width="60" height="80" as="geometry" />
        </mxCell>
      </root>
    </mxGraphModel>
  </diagram>
</mxfile>
